<svg xmlns:xlink="http://www.w3.org/1999/xlink" width="25" height="24" viewBox="0 0 25 24" fill="none" xmlns="http://www.w3.org/2000/svg"><path d="M7.56203 19.7C8.38203 18.82 9.63203 18.89 10.352 19.85L11.362 21.2C12.172 22.27 13.482 22.27 14.292 21.2L15.302 19.85C16.022 18.89 17.272 18.82 18.092 19.7C19.872 21.6 21.322 20.97 21.322 18.31V7.04C21.332 3.01 20.392 2 16.612 2H9.05203C5.27203 2 4.33203 3.01 4.33203 7.04V18.3C4.33203 20.97 5.79203 21.59 7.56203 19.7Z" stroke="#292D32" stroke-width="1.5px" stroke-linecap="round" stroke-linejoin="round" fill="none"></path> <path d="M8.9281 11H8.93708" stroke="#292D32" stroke-width="2px" stroke-linecap="round" stroke-linejoin="round" fill="none"></path> <path d="M11.7305 11H17.2305" stroke="#292D32" stroke-width="1.5px" stroke-linecap="round" stroke-linejoin="round" fill="none"></path> <path d="M8.9281 7H8.93708" stroke="#292D32" stroke-width="2px" stroke-linecap="round" stroke-linejoin="round" fill="none"></path> <path d="M11.7305 7H17.2305" stroke="#292D32" stroke-width="1.5px" stroke-linecap="round" stroke-linejoin="round" fill="none"></path></svg>