<svg xmlns:xlink="http://www.w3.org/1999/xlink" width="24" height="24" viewBox="0 0 24 24" fill="none" xmlns="http://www.w3.org/2000/svg"><path d="M21.047 5.49846C21.1402 6.71873 21.281 10.0468 20.501 14C19.7034 18.0424 14.6389 20.7776 12.7283 21.6769C12.2645 21.8953 11.7358 21.8953 11.272 21.6769C9.36154 20.7775 4.29764 18.0424 3.50018 14C2.72025 10.0465 2.86159 6.71827 2.95493 5.49821C2.97904 5.18299 3.16 4.90933 3.43923 4.7611C4.77753 4.05062 8.90797 2 11.9995 2C15.0911 2 19.2234 4.05058 20.5625 4.76108C20.8418 4.90932 21.0229 5.18311 21.047 5.49846Z" stroke="#292D32" stroke-width="2px" fill="none"></path> <path d="M9 11.6641L10.9363 13.877C11.1426 14.1127 11.5123 14.103 11.7058 13.8567L15 9.66406" stroke="#292D32" stroke-width="2px" stroke-linecap="round" stroke-linejoin="round" fill="none"></path></svg>