<svg xmlns:xlink="http://www.w3.org/1999/xlink" width="22" height="22" viewBox="0 0 22 22" fill="none" xmlns="http://www.w3.org/2000/svg"><path d="M20.1663 11C20.1663 5.93743 16.0623 1.83337 10.9997 1.83337C5.93706 1.83337 1.83301 5.93743 1.83301 11C1.83301 16.0627 5.93706 20.1667 10.9997 20.1667C16.0623 20.1667 20.1663 16.0627 20.1663 11Z" stroke="#FFFFFF" stroke-width="1.5px" fill="none"></path> <path d="M13.75 9.16675C13.75 10.6855 12.5188 11.9167 11 11.9167C9.48124 11.9167 8.25 10.6855 8.25 9.16675C8.25 7.64796 9.48124 6.41675 11 6.41675C12.5188 6.41675 13.75 7.64796 13.75 9.16675Z" stroke="#FFFFFF" stroke-width="1.5px" fill="none"></path> <path d="M16.5 18.3334C16.5 16.3084 14.0376 14.6667 11 14.6667C7.96243 14.6667 5.5 16.3084 5.5 18.3334" stroke="#FFFFFF" stroke-width="1.5px" stroke-linecap="round" fill="none"></path></svg>