<?xml version="1.0" encoding="UTF-8"?>
<svg id="Layer_1" data-name="Layer 1" xmlns="http://www.w3.org/2000/svg" width="191" height="19" version="1.1" viewBox="0 0 191 19">
  <defs>
    <style>
      .cls-1 {
        fill: none;
      }

      .cls-1, .cls-2, .cls-3 {
        stroke-width: 0px;
      }

      .cls-2 {
        fill: #000b68;
      }

      .cls-3 {
        fill: #e9efff;
      }
    </style>
  </defs>
  <rect class="cls-1" width="191" height="19"/>
  <path class="cls-3" d="M191,0H0v19h191V0Z"/>
  <g>
    <path class="cls-2" d="M21.62,11.71c0-.12-.02-.24-.07-.34s-.12-.2-.21-.28c-.3-.22-.64-.37-1-.43-.49-.1-.95-.3-1.35-.6-.15-.12-.27-.27-.35-.45-.08-.17-.13-.36-.12-.56,0-.2.05-.4.14-.59.09-.18.22-.34.38-.47.39-.3.87-.45,1.36-.43.52-.03,1.03.15,1.42.49.16.14.29.32.38.51.09.2.13.41.13.63h-.7c0-.14-.02-.29-.08-.42-.06-.13-.14-.25-.24-.35-.25-.21-.57-.32-.9-.3-.3-.02-.6.07-.85.25-.09.08-.17.18-.22.29-.05.11-.07.24-.07.36,0,.12.03.24.08.34.06.11.14.19.24.26.31.19.64.33,1,.41.48.1.93.32,1.31.63.14.13.25.28.33.45.08.17.12.36.12.55,0,.21-.04.41-.14.6-.09.19-.23.34-.4.46-.41.28-.91.43-1.41.4-.51,0-1.01-.15-1.44-.44-.2-.13-.35-.31-.46-.52-.11-.21-.16-.44-.15-.68h.7c0,.16.02.31.09.45.07.14.17.26.3.35.28.19.61.28.95.27.31.01.62-.07.89-.23.11-.07.2-.16.26-.28.06-.11.09-.24.09-.37Z"/>
    <path class="cls-2" d="M25.77,13.08v-.32c0-.09,0-.19,0-.28-.14.2-.33.37-.54.49-.26.14-.56.21-.85.19s-.58-.13-.81-.32c-.11-.12-.2-.26-.26-.41-.06-.15-.08-.32-.07-.48-.01-.18.03-.36.11-.52s.21-.3.36-.39c.36-.23.78-.34,1.21-.33h.8v-.4c0-.11-.01-.21-.05-.31-.04-.1-.1-.19-.17-.26-.17-.14-.39-.21-.61-.2-.21,0-.41.05-.58.18-.07.05-.12.11-.16.19-.04.07-.06.16-.06.24h-.7c0-.16.04-.32.11-.46.07-.14.18-.26.31-.36.32-.24.71-.35,1.11-.33.4-.02.79.1,1.11.35.14.12.25.28.32.45.07.17.1.36.09.55v2.43c.02.13.04.26.08.39l-.75-.09ZM24.55,12.54c.26,0,.51-.07.72-.21.19-.1.34-.27.42-.47v-.65h-.78c-.25-.01-.51.07-.71.22-.09.07-.17.15-.22.25s-.08.21-.07.33c0,.08,0,.16.04.23s.07.14.13.19c.14.09.3.13.47.11ZM24.55,8.36v-.57c.14,0,.27-.03.4-.08.04-.02.07-.04.09-.08.02-.04.03-.08.03-.12,0-.05-.02-.09-.04-.13-.03-.04-.07-.07-.11-.08-.14-.05-.29-.08-.44-.07v-.41c.29-.01.59.05.85.19.09.05.16.13.21.22s.08.19.08.3c0,.07,0,.15-.03.22-.03.07-.07.13-.13.18-.12.09-.25.15-.4.17v.26h-.5Z"/>
    <path class="cls-2" d="M28.15,9v.61c.12-.21.3-.38.51-.5.27-.15.58-.21.88-.17.31.04.59.17.82.37.27.34.39.76.36,1.19v2.56h-.74v-2.53c.03-.27-.05-.54-.21-.76-.09-.08-.19-.14-.3-.18-.11-.04-.23-.05-.35-.04-.2,0-.39.05-.56.15-.17.1-.3.25-.39.42v3.01h-.74v-4.13h.71Z"/>
    <path class="cls-2" d="M37.19,11.21c.03.51-.12,1.01-.42,1.41-.14.18-.31.32-.51.41-.2.09-.42.14-.64.13-.23,0-.45-.04-.66-.12-.19-.09-.35-.22-.48-.38v2.01h-.74v-5.67h.57l.11.53c.13-.19.3-.35.5-.45.21-.1.45-.16.69-.15.23,0,.46.04.66.15.2.11.38.26.51.45.3.47.45,1.02.42,1.57v.1ZM36.45,11.13c.01-.39-.08-.78-.27-1.12-.08-.14-.2-.26-.34-.33-.14-.08-.3-.11-.46-.11-.19,0-.38.04-.55.14-.15.1-.27.23-.36.39v2.01c.08.16.21.3.36.39.17.1.36.14.55.14.15,0,.31-.02.45-.09.14-.07.26-.17.35-.29.19-.3.29-.65.27-1v-.12Z"/>
    <path class="cls-2" d="M38.87,9.56c.13-.19.31-.34.51-.45.21-.11.44-.16.68-.16.18,0,.37.02.54.09.17.07.33.17.46.3.27.34.39.77.36,1.2v2.54h-.74v-2.55c.02-.26-.05-.53-.21-.74-.08-.08-.19-.15-.3-.19-.11-.04-.23-.06-.35-.05-.19,0-.38.04-.55.14-.16.1-.3.23-.41.39v3.01h-.74v-5.87h.75v2.34Z"/>
    <path class="cls-2" d="M44.92,13.08c-.03-.11-.05-.21-.06-.32,0-.09,0-.19,0-.28-.15.2-.33.36-.54.49-.21.13-.46.19-.71.19-.18.02-.36,0-.53-.06-.17-.06-.33-.14-.47-.26-.11-.12-.2-.26-.26-.41-.06-.15-.08-.32-.07-.48,0-.19.03-.37.11-.54.08-.17.21-.31.36-.41.38-.24.83-.36,1.28-.33h.82v-.4c0-.11-.01-.21-.05-.31-.04-.1-.09-.19-.17-.26-.17-.13-.38-.2-.59-.2s-.42.07-.59.2c-.07.05-.13.11-.16.19-.04.07-.06.16-.06.24h-.7c0-.16.04-.32.11-.46.07-.14.18-.26.31-.36.32-.23.71-.34,1.11-.32.4-.02.79.1,1.1.35.14.12.25.28.32.45.07.17.1.36.09.55v2.01c0,.14,0,.28,0,.42.01.13.04.26.08.39l-.73-.09ZM45.32,8.41h-.63l-.74-.7-.73.7h-.64l1-1h.74l1,1ZM43.69,12.54c.26,0,.51-.07.73-.21.19-.11.33-.27.42-.47v-.65h-.83c-.26-.02-.51.06-.71.22-.08.06-.15.14-.2.23-.05.09-.07.19-.07.3,0,.08,0,.16.04.23.03.07.08.14.13.19.07.06.14.1.23.13.08.03.17.04.26.03ZM45.23,7.91v-.49c.12,0,.24-.02.35-.07.03-.01.06-.04.08-.07.02-.03.03-.07.02-.1,0-.04-.01-.08-.04-.11-.03-.03-.06-.06-.1-.07-.12-.05-.24-.07-.37-.06v-.36c.26-.01.51.04.74.17.08.04.14.11.19.19.04.08.07.17.06.26,0,.07,0,.13-.03.19-.02.06-.06.12-.11.16-.1.08-.22.14-.35.15v.22h-.44Z"/>
    <path class="cls-2" d="M47.29,9l.06.53c.13-.19.3-.34.5-.44.22-.11.46-.17.71-.16.24,0,.48.06.69.19.2.13.36.33.44.56.12-.22.29-.41.5-.55.22-.14.48-.21.74-.2.19-.01.37.02.55.09.17.07.33.18.45.33.27.37.39.83.36,1.28v2.43h-.74v-2.42c.03-.3-.05-.59-.21-.84-.08-.09-.17-.15-.27-.2-.11-.04-.22-.06-.33-.05-.11,0-.23.01-.33.06-.11.05-.2.11-.27.2-.16.18-.26.42-.28.66v2.61h-.74v-2.44c.02-.29-.05-.59-.21-.83-.08-.09-.17-.16-.27-.2-.11-.05-.22-.07-.33-.06-.19,0-.39.04-.56.13-.14.1-.25.23-.33.39v3.01h-.74v-4.08h.64Z"/>
    <path class="cls-2" d="M61.06,10.47c0,.37-.05.74-.18,1.08-.13.34-.33.66-.58.93-.58.5-1.33.75-2.09.69-.41.02-.82-.05-1.21-.2-.39-.15-.74-.37-1.04-.66-.28-.29-.51-.64-.65-1.01-.15-.38-.22-.78-.2-1.19v-1.53c-.02-.4.05-.81.19-1.19.14-.38.36-.73.64-1.02.28-.29.62-.51.99-.66.37-.15.77-.21,1.17-.2.78-.06,1.56.2,2.15.71.52.54.82,1.25.84,2.01h-1.68c0-.39-.1-.76-.32-1.08-.13-.13-.29-.23-.46-.29-.17-.06-.36-.08-.54-.06-.18,0-.36.03-.52.12-.16.08-.3.2-.4.35-.25.38-.36.84-.33,1.29v1.57c-.02.45.11.89.37,1.25.12.15.27.27.44.36.17.08.36.12.56.11.16.02.33,0,.48-.06.15-.06.29-.15.4-.27.21-.31.31-.69.3-1.06h1.69Z"/>
    <path class="cls-2" d="M63.57,8.23c.16-.24.36-.44.61-.59.35-.18.75-.24,1.14-.17.39.07.74.27,1,.57.36.55.53,1.2.48,1.85v3.19h-1.72v-3.2c.03-.3-.04-.61-.19-.87-.07-.08-.16-.15-.27-.19-.1-.04-.21-.06-.32-.05-.15,0-.29.02-.43.07-.12.04-.22.12-.31.21v4.01h-1.76V5.04h1.73l.03,3.19Z"/>
    <path class="cls-2" d="M68.93,5.47h1.78l-1.44,1.33h-1.4l1.06-1.33ZM69.64,13.08h-1.73v-5.54h1.73v5.54Z"/>
    <path class="cls-2" d="M72.34,7.54l.06.78c.17-.27.4-.49.67-.65.27-.16.58-.24.89-.23.24-.01.48.03.7.12.22.09.42.23.58.41.34.49.5,1.09.45,1.68v3.44h-1.73v-3.44c.02-.23-.04-.45-.17-.64-.16-.14-.37-.21-.58-.19-.15,0-.29.03-.43.08-.12.06-.23.14-.32.24v4.01h-1.74v-5.61h1.62Z"/>
    <path class="cls-2" d="M78.29,8.23c.16-.24.36-.44.61-.59.35-.18.75-.24,1.14-.17.39.07.74.27,1,.57.37.54.54,1.2.49,1.85v3.19h-1.77v-3.2c.03-.3-.04-.61-.19-.87-.07-.08-.16-.15-.27-.19-.1-.04-.21-.06-.32-.05-.15,0-.29.02-.43.07-.12.05-.22.12-.31.21v4.01h-1.69V5.04h1.73v3.19Z"/>
    <path class="cls-2" d="M86.75,8.23c.16-.24.36-.44.61-.59.35-.18.75-.24,1.14-.17.39.07.74.27,1,.57.37.54.54,1.2.49,1.85v3.19h-1.71v-3.2c.03-.3-.04-.61-.19-.87-.07-.08-.16-.15-.27-.19-.1-.04-.21-.06-.32-.05-.15,0-.29.02-.43.07-.12.04-.22.12-.31.21v4.01h-1.73V5.04h1.71v3.19Z"/>
    <path class="cls-2" d="M94.14,13.08c-.05-.1-.09-.2-.13-.3-.04-.11-.07-.23-.1-.34-.16.22-.36.41-.59.55-.26.14-.55.21-.85.2-.47.02-.92-.14-1.28-.45-.16-.16-.29-.35-.38-.56-.08-.21-.12-.44-.11-.67-.01-.25.04-.49.14-.71.11-.22.27-.41.47-.56.56-.34,1.22-.49,1.88-.44h.63v-.4c.01-.2-.05-.39-.17-.54-.07-.07-.14-.12-.23-.15-.09-.03-.18-.05-.28-.04-.16-.01-.32.04-.45.14-.1.12-.15.28-.14.44h-1.67c-.01-.25.04-.49.15-.72.11-.22.28-.41.48-.55.51-.36,1.12-.54,1.75-.51.59-.03,1.18.15,1.66.51.21.18.38.4.49.65.11.25.16.53.14.81v2.06c0,.28.03.55.08.82.05.26.12.51.22.75h-1.72ZM95.2,5.19c0,.31-.1.61-.3.84-.09.11-.21.2-.35.26-.13.06-.28.09-.42.09-.29-.01-.58-.08-.84-.21-.23-.12-.49-.19-.75-.22-.06,0-.11.02-.16.05-.05.03-.09.07-.12.12-.08.12-.12.26-.12.4l-.91-.26c0-.31.11-.61.31-.84.09-.11.21-.2.34-.26.13-.06.27-.09.42-.09.28.02.55.09.81.21.25.12.51.19.78.21.06,0,.11-.02.16-.04.05-.03.09-.07.12-.12.08-.12.12-.26.12-.4l.91.26ZM93.01,12.01c.16,0,.32-.04.47-.1.13-.06.25-.16.35-.27v-.86h-.62c-.11-.01-.21,0-.31.03-.1.03-.19.09-.27.16-.13.14-.2.32-.19.51,0,.07,0,.14.03.21.03.07.07.12.12.17.12.1.27.16.42.15Z"/>
    <path class="cls-2" d="M98.09,7.54l.07.78c.16-.27.39-.49.67-.65.27-.16.58-.24.89-.23.24-.01.47.03.69.12.22.09.42.23.58.4.35.49.51,1.09.46,1.68v3.44h-1.73v-3.44c.02-.24-.05-.49-.2-.68-.08-.07-.17-.12-.27-.15s-.2-.04-.31-.04c-.15,0-.29.03-.43.08-.12.06-.22.14-.31.24v4.01h-1.73v-5.56h1.62Z"/>
    <path class="cls-2" d="M102.15,10.33c-.03-.74.16-1.47.56-2.1.18-.26.42-.46.69-.6.28-.14.59-.2.89-.19.27,0,.54.07.78.2.23.15.42.36.57.59l.12-.69h1.51v5.33c.01.34-.05.67-.18.98-.13.31-.33.58-.58.81-.56.46-1.27.7-2,.67-.3,0-.6-.04-.9-.12-.31-.07-.61-.18-.9-.32l.28-1.28c.23.1.47.19.72.25.26.06.52.08.79.08.15,0,.29-.01.43-.06.14-.05.27-.13.38-.23.1-.1.17-.23.22-.36.05-.13.07-.28.06-.42v-.28c-.15.19-.33.35-.55.45-.22.11-.46.17-.71.16-.3.01-.61-.05-.88-.18-.27-.13-.51-.33-.69-.58-.4-.59-.59-1.29-.56-2.01l-.05-.1ZM103.87,10.43c-.02.37.05.73.2,1.06.06.12.16.22.27.29.12.07.25.1.39.08.17,0,.33-.03.49-.09.13-.05.25-.14.33-.26v-2.33c-.08-.13-.2-.24-.33-.31-.15-.07-.31-.11-.48-.1-.14,0-.28.03-.4.11-.12.08-.21.19-.26.32-.15.36-.23.74-.21,1.13v.1Z"/>
    <path class="cls-2" d="M114.21,10.54h-3.07v-1.33h3.07v1.33Z"/>
    <path class="cls-2" d="M120.97,8.14l1.23-2.52h2l-2.12,3.7,2.29,3.76h-2.09l-1.27-2.57-1.27,2.57h-2l2.17-3.76-2.12-3.7h2l1.19,2.52Z"/>
    <path class="cls-2" d="M128.03,12.43c-.17.24-.39.43-.65.56-.27.14-.57.21-.87.2-.25.01-.5-.03-.73-.12-.23-.1-.44-.24-.61-.43-.36-.5-.54-1.11-.49-1.72v-3.38h1.73v3.39c-.02.25.04.49.17.7.06.08.14.14.23.18.09.04.18.06.28.05.16,0,.33-.03.48-.08.14-.05.26-.12.36-.23v-4.01h1.73v5.54h-1.51l-.11-.65Z"/>
    <path class="cls-2" d="M133.76,13.08c-.05-.1-.09-.2-.13-.3-.04-.11-.07-.23-.1-.34-.16.22-.36.41-.59.55-.26.14-.55.21-.85.2-.47.02-.92-.14-1.28-.45-.16-.16-.29-.35-.38-.56-.08-.21-.12-.44-.11-.67-.01-.25.04-.49.15-.72.11-.22.27-.41.47-.56.56-.34,1.21-.49,1.87-.44h.63v-.4c.01-.2-.05-.39-.17-.54-.13-.11-.3-.16-.47-.16s-.34.06-.47.16c-.05.06-.1.13-.12.2-.03.08-.04.16-.03.24h-1.67c-.02-.25.04-.49.15-.72.11-.22.28-.41.48-.55.51-.36,1.13-.54,1.75-.51.59-.03,1.18.15,1.66.51.21.18.38.4.49.66.11.25.16.53.14.81v2.01c0,.28.03.55.08.82.05.26.12.51.22.75h-1.72ZM132.17,5.36h1.47l1.54,1.28h-1.54l-.75-.7-.73.7h-1.52l1.53-1.28ZM132.64,12.01c.16,0,.32-.04.47-.1.14-.06.25-.16.35-.27v-.86h-.61c-.11-.01-.22,0-.32.03-.1.03-.2.09-.28.16-.12.14-.19.32-.19.51,0,.07.01.14.04.21.03.07.07.12.13.17.05.05.12.09.19.12.07.03.14.04.22.03ZM135.41,4.45h1.52l-1.11,1.4h-1.19l.78-1.4Z"/>
    <path class="cls-2" d="M138.17,6.15v1.38h.94v1.19h-.94v2.55c-.01.15.03.31.12.43.04.04.09.08.15.1.06.02.12.03.18.03h.5l.12,1.28-.52.09c-.18.01-.36.01-.54,0-.23.02-.47-.01-.69-.09-.22-.08-.43-.2-.6-.36-.33-.41-.49-.93-.44-1.45v-2.58h-.78v-1.19h.78v-1.38h1.72Z"/>
    <path class="cls-2" d="M145.28,11.06v.27l.05-.25,1.48-5.45h1.8l-2.41,7.46h-1.85l-2.4-7.46h1.81l1.54,5.43Z"/>
    <path class="cls-2" d="M152.83,11.64h-2.34l-.41,1.44h-1.74l2.39-7.46h1.85l2.4,7.46h-1.74l-.42-1.44ZM150.84,10.31h1.58l-.78-2.68-.8,2.68Z"/>
    <path class="cls-2" d="M160.24,7h-2v6.13h-1.68v-6.13h-1.99v-1.37h5.63l.04,1.37Z"/>
    <path class="cls-2" d="M167.49,8.47h-.74v4.61h-.6l-.09-.5c-.13.18-.3.33-.51.43-.21.09-.44.14-.67.14-.22.01-.44-.03-.64-.13-.2-.09-.38-.24-.51-.41-.3-.41-.45-.91-.42-1.41v-.08c-.02-.55.12-1.1.41-1.57.13-.19.3-.35.51-.45.2-.11.43-.16.66-.15.22,0,.44.04.64.13.18.09.34.22.46.38v-1h-.92v-.59h.92v-.65h.74v.65h.74l.03.61ZM164.06,11.21c-.02.35.07.7.26,1,.08.12.2.22.33.29.13.07.28.09.43.08.2,0,.39-.05.56-.15.15-.11.28-.25.36-.42v-1.92c-.09-.16-.21-.3-.36-.4-.17-.1-.36-.14-.55-.14-.16,0-.31.03-.45.1-.14.08-.25.19-.33.33-.18.35-.27.75-.26,1.14v.08Z"/>
    <path class="cls-2" d="M168.38,7.7h-.55l-.76-1h.79l.52,1ZM170.45,13.08c-.03-.11-.05-.21-.06-.32,0-.09,0-.19,0-.28-.14.2-.32.37-.53.49-.22.13-.47.19-.72.19-.18.02-.36,0-.53-.06-.17-.06-.33-.14-.47-.26-.11-.12-.2-.26-.26-.41-.06-.15-.08-.32-.07-.48-.01-.18.03-.36.11-.52.08-.16.21-.3.36-.39.38-.24.81-.35,1.26-.33h.8v-.4c0-.1-.01-.21-.05-.31-.04-.1-.09-.19-.16-.26-.17-.14-.4-.21-.62-.2-.21,0-.41.05-.58.18-.07.05-.12.12-.16.19-.04.07-.06.16-.06.24h-.7c0-.16.04-.32.11-.46.07-.14.18-.26.31-.36.32-.24.71-.35,1.11-.33.4-.02.79.1,1.11.35.14.12.25.28.32.45.07.17.11.36.1.55v2.43c.02.13.05.26.09.39l-.71-.09ZM170.88,8.34h-.75l-.62-.58-.63.58h-.74l1.08-1h.59l1.07,1ZM169.22,12.54c.26,0,.51-.07.72-.21.19-.1.34-.27.42-.47v-.65h-.82c-.26-.01-.51.06-.72.22-.09.07-.16.15-.21.25-.05.1-.07.21-.07.33,0,.08,0,.16.03.23.03.07.07.14.13.19.15.1.34.14.52.11Z"/>
    <path class="cls-2" d="M173.34,11.58l.14.51,1.05-3.09h.82l-1.7,4.68c-.1.27-.25.51-.44.72-.1.1-.22.18-.35.23-.13.05-.27.07-.42.07h-.44l.07-.58h.33c.08,0,.15-.02.22-.06.07-.04.13-.09.17-.16.1-.15.18-.31.25-.47l.17-.42-1.5-4.01h.82l.81,2.57Z"/>
    <path class="cls-2" d="M181.84,8.47h-.74v4.61h-.59l-.08-.5c-.13.18-.29.33-.49.44-.21.1-.44.14-.67.14-.22.01-.44-.03-.64-.13-.2-.09-.38-.24-.51-.41-.3-.41-.45-.91-.42-1.41v-.08c-.03-.56.12-1.11.42-1.57.13-.19.3-.35.5-.46.2-.11.43-.16.66-.15.22,0,.43.04.63.13.18.09.34.22.47.38v-1h-.93v-.59h.93v-.65h.73v.65h.74v.6ZM178.43,11.21c-.03.35.06.7.25,1,.09.13.2.23.34.29s.29.09.44.08c.19,0,.38-.05.55-.15.16-.11.28-.25.37-.42v-1.92c-.09-.16-.22-.3-.37-.4-.17-.1-.36-.15-.55-.14-.16,0-.31.03-.45.1-.14.08-.25.19-.33.33-.18.35-.27.75-.25,1.14v.08Z"/>
    <path class="cls-2" d="M184.88,12.49c-.12.2-.29.38-.49.5-.21.11-.45.17-.69.17-.19,0-.37-.03-.54-.1-.17-.07-.33-.18-.45-.32-.27-.38-.41-.85-.37-1.32v-2.42h.74v2.41c-.03.31.04.62.19.89.08.08.17.15.27.19.1.04.22.06.33.05.23,0,.45-.05.65-.16.17-.1.31-.26.38-.45v-2.93h.74v4.06h-.66l-.09-.57ZM183.71,8.43v-.57c.14,0,.28-.03.41-.08.04-.02.07-.04.09-.08.02-.04.03-.08.03-.12,0-.05-.02-.09-.05-.13-.03-.04-.07-.07-.11-.08-.14-.05-.29-.08-.44-.07v-.41c.29-.01.58.05.84.19.09.05.17.13.22.22.05.09.08.2.08.3,0,.07,0,.15-.03.22-.03.07-.07.13-.13.18-.12.1-.26.16-.41.17v.26h-.5Z"/>
    <path class="cls-2" d="M9.34,9.62l-1-1c-.1-.11-.16-.25-.16-.4s.06-.29.16-.4c.11-.11.25-.16.4-.16s.29.06.4.16l.53.53,1.5-1.5c.11-.11.25-.17.4-.17s.3.06.4.17c.1.11.16.25.16.4s-.06.29-.16.4l-1.94,1.95c-.09.09-.21.15-.34.15-.13,0-.26-.04-.35-.12Z"/>
    <path class="cls-2" d="M8.82,13.13c-.11.05-.23.08-.34.08-.12,0-.24-.02-.35-.07-.11-.05-.21-.12-.29-.21-.08-.09-.14-.19-.18-.31-.02-.07-.05-.14-.09-.2l-.85,2.85s0,.04,0,.06c0,.02.02.04.04.05.02.01.04.02.06.03.02,0,.04,0,.06,0l1.44-.56s.05-.03.07-.03.05,0,.07.03l.89,1.26c.06.08.19.07.21,0l.39-1.25-.57-1.73c-.07-.05-.16-.08-.25-.08-.11,0-.22.03-.32.08Z"/>
    <path class="cls-2" d="M14.94,7.94c-.19-.14-.31-.35-.36-.58-.05-.23-.02-.47.09-.68.02-.05.04-.11.04-.16,0-.06-.01-.11-.03-.17-.02-.05-.06-.1-.1-.14-.04-.04-.09-.07-.15-.08-.22-.05-.4-.19-.53-.37-.13-.18-.18-.41-.15-.63,0-.05,0-.11-.03-.16-.02-.05-.05-.1-.09-.14-.04-.04-.08-.07-.13-.09-.05-.02-.1-.03-.16-.03h-.1c-.22.01-.43-.05-.61-.18-.17-.13-.3-.32-.34-.53-.03-.07-.07-.14-.14-.18s-.14-.07-.21-.08c-.06-.01-.11-.01-.17,0-.15.07-.32.12-.49.12-.15,0-.3-.04-.43-.11-.13-.07-.25-.17-.34-.29-.04-.04-.08-.07-.14-.1-.05-.02-.11-.03-.16-.03s-.11.01-.16.03c-.05.02-.1.06-.14.1-.09.12-.21.22-.34.29-.13.07-.28.11-.43.11-.17,0-.34-.04-.49-.12-.06-.01-.11-.01-.17,0-.08,0-.16.03-.23.07-.07.05-.12.12-.15.2-.05.21-.17.39-.34.51-.17.13-.38.19-.59.18h-.1c-.05,0-.11.01-.16.03-.05.02-.1.05-.13.09-.04.04-.07.09-.09.14-.02.05-.03.11-.03.16.03.22-.02.45-.15.63-.13.18-.31.32-.53.37-.05.02-.1.05-.15.08-.04.04-.08.08-.1.14-.02.05-.03.11-.03.17,0,.06.01.11.04.16.11.21.14.45.09.68-.05.23-.18.44-.36.58-.04.04-.07.09-.09.14-.02.05-.03.11-.03.16s.01.11.03.16c.02.05.05.1.09.14.19.14.31.35.36.58s.02.47-.09.68c-.02.05-.04.11-.04.17,0,.06.01.11.03.17s.06.1.1.14c.04.04.09.07.15.09.22.05.41.18.53.37.13.19.18.41.15.63,0,.06,0,.11.03.16.02.05.05.1.09.14.04.04.08.07.14.09.05.02.11.03.16.03h.1c.21-.01.42.05.59.18.17.13.29.31.34.51.03.08.08.15.15.19s.15.07.23.08c.06.01.11.01.17,0,.15-.08.32-.12.49-.12.15,0,.3.04.43.11.13.07.25.16.34.28.04.04.08.07.14.1.05.02.11.03.16.03s.11-.01.16-.03c.05-.02.1-.06.14-.1.09-.12.21-.22.34-.28.13-.07.28-.1.43-.11.17,0,.34.05.49.12.06.01.11.01.17,0,.08,0,.16-.03.23-.08.07-.05.12-.12.15-.19.05-.21.17-.39.34-.51.17-.13.38-.19.59-.18h.1c.06,0,.11-.01.16-.03.05-.02.1-.05.14-.09.04-.04.07-.09.09-.14.02-.05.03-.11.03-.16-.03-.22.02-.45.15-.63.13-.19.31-.32.53-.37.05-.02.1-.05.15-.09.04-.04.08-.09.1-.14s.03-.11.03-.17c0-.06-.01-.11-.04-.17-.11-.21-.14-.44-.1-.67.05-.23.17-.43.35-.58.04-.04.07-.09.09-.14.02-.05.03-.11.03-.16s-.01-.11-.03-.16c-.02-.05-.05-.1-.09-.14ZM10.21,11.44c-.63,0-1.24-.19-1.77-.54-.52-.35-.93-.85-1.17-1.44-.24-.58-.3-1.23-.18-1.85.12-.62.43-1.19.87-1.64.44-.45,1.01-.75,1.63-.88.62-.12,1.26-.06,1.84.18.58.24,1.08.65,1.43,1.18.35.53.54,1.14.54,1.78,0,.42-.08.84-.24,1.23-.16.39-.4.74-.69,1.04-.3.3-.65.53-1.04.69-.39.16-.8.24-1.22.24h.02Z"/>
    <path class="cls-2" d="M11.95,13.21c-.12,0-.24-.03-.35-.08-.1-.05-.2-.08-.31-.08-.09,0-.17.03-.25.07-.08.04-.14.1-.19.18-.08.09-.18.15-.29.2-.11.05-.22.07-.34.07-.07,0-.14,0-.21,0l1,3.01s.02.04.04.06c.02.01.04.02.07.02.02,0,.04,0,.06-.02.02-.01.03-.03.04-.04l.86-1.29s.03-.03.04-.04c.02,0,.04-.01.06-.01h.05l1.45.53c.08,0,.15-.07.12-.14l-1-3.13s0,.08,0,.12c-.06.17-.18.32-.33.43-.15.1-.33.15-.52.15Z"/>
  </g>
</svg>