<?xml version="1.0" encoding="UTF-8"?>
<svg id="Layer_1" data-name="Layer 1" xmlns="http://www.w3.org/2000/svg" width="191" height="19" version="1.1" viewBox="0 0 191 19">
  <defs>
    <style>
      .cls-1 {
        fill: none;
      }

      .cls-1, .cls-2, .cls-3, .cls-4, .cls-5 {
        stroke-width: 0px;
      }

      .cls-2 {
        fill: #df082d;
      }

      .cls-3 {
        fill: #000b68;
      }

      .cls-4 {
        fill: #fff;
      }

      .cls-5 {
        fill: #e9efff;
      }
    </style>
  </defs>
  <rect class="cls-1" width="191" height="19"/>
  <path class="cls-5" d="M191,0H0v19h191V0Z"/>
  <g>
    <rect class="cls-2" x="3.1" y="3.45" width="12.1" height="12.1" rx="2.2" ry="2.2"/>
    <g>
      <polygon class="cls-4" points="5.78 8.25 5.78 5.11 12.52 5.11 12.52 7.82 11.57 6.65 7.32 6.65 7.32 7.36 9.25 9.46 9.12 9.63 5.78 8.25"/>
      <polygon class="cls-4" points="5.78 13.89 5.78 11.08 6.84 12.35 10.99 12.35 10.99 11.05 9.11 8.9 9.24 8.73 12.52 10.28 12.52 13.89 5.78 13.89"/>
    </g>
  </g>
  <g>
    <path class="cls-3" d="M23.63,6.59h-2.38v6.45h-1.91v-6.45h-2.34v-1.48h6.63v1.48Z"/>
    <path class="cls-3" d="M26.53,13.04c-.07-.12-.12-.3-.17-.53-.34.42-.81.64-1.42.64-.56,0-1.03-.17-1.42-.5-.39-.34-.58-.76-.58-1.27,0-.64.24-1.12.71-1.45.47-.33,1.16-.49,2.06-.49h.57v-.31c0-.54-.23-.82-.7-.82-.44,0-.65.22-.65.65h-1.84c0-.57.24-1.03.73-1.39.48-.36,1.1-.53,1.85-.53s1.35.18,1.78.55.66.87.67,1.51v2.61c0,.54.09.96.25,1.24v.09h-1.84ZM24.9,6.13l-.12-.69c.5-.02.75-.14.75-.34,0-.24-.24-.36-.73-.36l.04-.79c.75,0,1.33.09,1.71.28s.58.45.58.79c0,.2-.07.37-.22.51s-.34.22-.6.26v.34h-1.4ZM25.39,11.84c.23,0,.42-.05.57-.15.15-.1.26-.21.32-.33v-.94h-.53c-.64,0-.96.29-.96.86,0,.17.06.3.17.41.11.1.26.16.43.16Z"/>
    <path class="cls-3" d="M28.9,5.63c0-.26.09-.48.28-.64s.43-.25.74-.25.55.08.74.25c.19.17.28.38.28.64s-.09.48-.28.64c-.19.17-.43.25-.74.25s-.55-.08-.74-.25-.28-.38-.28-.64ZM30.85,13.04h-1.84v-5.89h1.84v5.89Z"/>
    <path class="cls-3" d="M38.9,11.56h-2.62l-.46,1.48h-2.04l2.91-7.93h1.8l2.93,7.93h-2.05l-.46-1.48ZM36.74,10.08h1.7l-.85-2.75-.85,2.75Z"/>
    <path class="cls-3" d="M46.89,10.14c0,.92-.21,1.65-.62,2.19-.41.55-.97.82-1.67.82-.54,0-.99-.2-1.33-.59v2.75h-1.84V7.15h1.72l.05.54c.35-.44.81-.65,1.39-.65.73,0,1.29.27,1.69.8.4.54.6,1.27.6,2.21v.09ZM45.06,10.02c0-1.04-.31-1.57-.92-1.57-.44,0-.73.16-.87.47v2.32c.16.33.45.49.88.49.58,0,.89-.5.9-1.51v-.2Z"/>
    <path class="cls-3" d="M52.95,10.14c0,.92-.21,1.65-.62,2.19-.41.55-.97.82-1.67.82-.54,0-.99-.2-1.33-.59v2.75h-1.84V7.15h1.72l.05.54c.35-.44.81-.65,1.39-.65.73,0,1.29.27,1.69.8.4.54.6,1.27.6,2.21v.09ZM51.11,10.02c0-1.04-.31-1.57-.92-1.57-.44,0-.73.16-.87.47v2.32c.16.33.45.49.88.49.58,0,.89-.5.9-1.51v-.2Z"/>
    <path class="cls-3" d="M60.26,10.93c0-.28-.1-.5-.3-.65-.2-.16-.55-.32-1.04-.48-.5-.17-.9-.33-1.22-.48-1.03-.5-1.54-1.2-1.54-2.08,0-.44.13-.83.38-1.16s.62-.6,1.09-.78.99-.28,1.58-.28,1.08.1,1.53.31c.45.2.8.49,1.05.87s.38.81.38,1.29h-1.91c0-.32-.1-.57-.3-.75-.2-.18-.47-.27-.8-.27s-.61.08-.81.23c-.2.15-.3.34-.3.57,0,.2.11.39.33.55s.6.34,1.15.51c.55.18,1,.37,1.35.57.86.49,1.29,1.17,1.29,2.04,0,.69-.26,1.24-.78,1.63-.52.4-1.24.59-2.15.59-.64,0-1.22-.12-1.75-.35-.52-.23-.91-.55-1.18-.95s-.39-.86-.39-1.39h1.92c0,.42.11.74.33.94.22.2.58.3,1.07.3.32,0,.57-.07.75-.2.18-.14.27-.33.27-.57Z"/>
    <path class="cls-3" d="M64.58,7.15l.06.69c.42-.53.98-.8,1.68-.8.74,0,1.25.3,1.51.89.4-.59.98-.89,1.73-.89,1.19,0,1.81.72,1.84,2.17v3.83h-1.84v-3.72c0-.3-.05-.52-.15-.66-.1-.14-.29-.21-.56-.21-.36,0-.63.16-.81.48v.08s0,4.02,0,4.02h-1.84v-3.71c0-.31-.05-.53-.15-.67-.1-.14-.29-.21-.56-.21-.35,0-.62.16-.81.48v4.1h-1.84v-5.89h1.72Z"/>
    <path class="cls-3" d="M75.08,13.15c-.9,0-1.64-.27-2.19-.81s-.84-1.24-.84-2.1v-.15c0-.6.11-1.13.33-1.6.22-.46.55-.82.98-1.07.43-.25.94-.38,1.52-.38.83,0,1.48.26,1.96.77.48.51.72,1.23.72,2.15v.71h-3.65c.07.33.21.59.43.78.22.19.51.28.86.28.58,0,1.04-.2,1.36-.61l.84.99c-.23.32-.55.57-.97.75-.42.19-.87.28-1.35.28ZM74.88,8.45c-.54,0-.86.36-.96,1.07h1.85v-.14c0-.29-.07-.52-.22-.68s-.38-.24-.67-.24Z"/>
    <path class="cls-3" d="M79.82,7.15l.06.69c.42-.53.98-.8,1.68-.8.74,0,1.25.3,1.51.89.4-.59.98-.89,1.73-.89,1.19,0,1.81.72,1.84,2.17v3.83h-1.84v-3.72c0-.3-.05-.52-.15-.66-.1-.14-.29-.21-.56-.21-.36,0-.63.16-.81.48v.08s0,4.02,0,4.02h-1.84v-3.71c0-.31-.05-.53-.15-.67-.1-.14-.29-.21-.56-.21-.35,0-.62.16-.81.48v4.1h-1.84v-5.89h1.72Z"/>
    <path class="cls-3" d="M92.94,10.14c0,.97-.2,1.71-.6,2.23s-.96.78-1.69.78c-.6,0-1.08-.24-1.45-.71l-.08.6h-1.64V4.67h1.84v2.95c.34-.39.78-.58,1.32-.58.73,0,1.3.26,1.7.79s.6,1.27.6,2.22v.09ZM91.09,10.03c0-.56-.08-.97-.23-1.21-.15-.24-.38-.36-.69-.36-.41,0-.7.16-.86.47v2.34c.16.31.45.47.87.47s.71-.21.82-.63c.06-.21.09-.57.09-1.08Z"/>
    <path class="cls-3" d="M96.37,13.15c-.9,0-1.64-.27-2.19-.81s-.84-1.24-.84-2.1v-.15c0-.6.11-1.13.33-1.6.22-.46.55-.82.98-1.07.43-.25.94-.38,1.52-.38.83,0,1.48.26,1.96.77s.72,1.23.72,2.15v.71h-3.65c.07.33.21.59.43.78.22.19.51.28.86.28.58,0,1.04-.2,1.36-.61l.84.99c-.23.32-.55.57-.97.75-.42.19-.87.28-1.35.28ZM96.17,8.45c-.54,0-.86.36-.96,1.07h1.85v-.14c0-.29-.07-.52-.22-.68s-.38-.24-.67-.24Z"/>
    <path class="cls-3" d="M102.93,8.81l-.6-.04c-.58,0-.95.18-1.11.54v3.73h-1.84v-5.89h1.72l.06.76c.31-.58.74-.87,1.29-.87.2,0,.37.02.51.07l-.03,1.7Z"/>
    <path class="cls-3" d="M106.39,10.9h-1.95v-.61h1.95v.61Z"/>
    <path class="cls-3" d="M112.56,7.85h-1.87v5.19h-.79v-5.19h-1.86v-.62h4.51v.62Z"/>
    <path class="cls-3" d="M113.76,13.04h-.79v-4.31h.79v4.31ZM113.75,7.14h.92v.02s-1.07,1.04-1.07,1.04h-.59l.74-1.06Z"/>
    <path class="cls-3" d="M116.42,12.51c.26,0,.49-.08.69-.24.2-.16.3-.36.3-.59h.71v.02c.02.37-.14.7-.49.99-.34.29-.74.43-1.2.43-.63,0-1.11-.21-1.44-.61s-.5-.92-.5-1.54v-.17c0-.61.17-1.13.5-1.54.33-.41.81-.62,1.44-.62.5,0,.92.15,1.24.45.32.3.47.66.46,1.1v.02h-.72c0-.26-.09-.49-.28-.67-.19-.18-.42-.28-.71-.28-.41,0-.71.15-.88.44s-.27.66-.27,1.09v.17c0,.44.09.81.26,1.1.17.29.47.44.88.44Z"/>
    <path class="cls-3" d="M119.46,9.31c.15-.21.33-.37.55-.48s.46-.17.72-.17c.46,0,.82.14,1.07.41.26.28.38.7.38,1.27v2.7h-.79v-2.71c0-.36-.08-.62-.23-.79-.15-.17-.38-.25-.68-.25-.22,0-.42.05-.59.15-.18.1-.32.24-.44.42v3.19h-.79v-6.22h.79v2.48Z"/>
    <path class="cls-3" d="M128.94,8.13h-.79v4.91h-.64l-.09-.53c-.14.2-.31.35-.52.46-.2.1-.44.16-.71.16-.53,0-.94-.19-1.24-.57s-.45-.88-.45-1.5v-.08c0-.69.15-1.25.44-1.68.3-.43.71-.64,1.25-.64.25,0,.48.05.67.14.2.09.36.23.5.41v-1.06h-.98v-.62h.98v-.69h.79v.69h.79v.62ZM125.29,11.05c0,.44.09.79.27,1.05.18.26.45.39.83.39.23,0,.43-.05.59-.16.16-.11.29-.25.39-.45v-2.01c-.1-.18-.23-.32-.39-.42-.16-.1-.35-.16-.58-.16-.38,0-.66.16-.83.47-.18.31-.27.71-.27,1.21v.08Z"/>
    <path class="cls-3" d="M129.97,7.62h-.79v-.8h.79v.8ZM129.97,13.04h-.79v-4.31h.79v4.31Z"/>
    <path class="cls-3" d="M132.64,13.12c-.6,0-1.08-.2-1.43-.6-.35-.4-.53-.92-.53-1.56v-.18c0-.61.18-1.12.55-1.53.37-.41.8-.61,1.3-.61.58,0,1.02.18,1.32.53.3.35.45.82.45,1.4v.49h-2.8v.02c0,.41.1.75.3,1.02s.49.4.85.4c.27,0,.5-.04.7-.11.2-.08.37-.18.52-.31l.31.51c-.15.15-.36.28-.61.38-.25.1-.56.15-.92.15ZM133.94,8.07v.02h-.69l-.78-.74-.78.74h-.67v-.02s1.06-1.02,1.06-1.02h.79l1.07,1.02ZM132.52,9.27c-.26,0-.49.11-.67.33-.19.22-.3.5-.34.83v.02h2v-.1c0-.31-.08-.56-.25-.77s-.41-.31-.73-.31ZM133.84,7.54v-.53c.17-.01.3-.03.37-.07.07-.03.11-.09.11-.18,0-.09-.05-.16-.15-.2s-.23-.06-.4-.06l.02-.37c.34,0,.6.06.78.17.18.12.27.27.27.47,0,.16-.05.29-.15.37s-.23.14-.38.16v.24h-.48Z"/>
    <path class="cls-3" d="M135.54,8.73l.06.57c.14-.2.32-.36.54-.48.22-.11.47-.17.76-.17s.53.07.74.2.36.33.46.6c.14-.24.32-.44.54-.58.22-.14.48-.22.78-.22.44,0,.79.15,1.04.45.25.3.38.76.38,1.36v2.58h-.79v-2.59c0-.43-.07-.73-.22-.9s-.36-.27-.65-.27c-.27,0-.49.09-.65.28s-.26.42-.29.71v2.77h-.79v-2.59c0-.4-.08-.7-.23-.89-.15-.19-.37-.28-.65-.28-.24,0-.44.05-.59.15s-.27.24-.35.41v3.19h-.79v-4.31h.7Z"/>
    <path class="cls-3" d="M143.04,11.65c0-.29.08-.54.25-.76.17-.22.42-.43.75-.65-.18-.23-.32-.44-.41-.63-.09-.18-.14-.37-.14-.57,0-.4.12-.71.35-.93.23-.22.55-.33.96-.33.37,0,.68.11.91.32.23.22.35.48.35.78,0,.23-.06.43-.19.6-.12.17-.31.34-.55.52l-.39.28,1.21,1.45c.1-.15.17-.32.23-.51.05-.19.08-.39.08-.59h.63c0,.31-.05.6-.14.87s-.23.5-.4.71l.66.79v.02h-.82l-.3-.36c-.19.14-.4.25-.63.33s-.47.11-.71.11c-.52,0-.92-.14-1.23-.41-.31-.27-.46-.63-.46-1.06ZM144.72,12.57c.17,0,.34-.03.51-.09.17-.06.32-.14.47-.25l-1.28-1.54-.14.1c-.22.16-.36.31-.43.46-.07.15-.11.28-.11.4,0,.27.08.49.25.66.17.17.41.26.73.26ZM144.19,9.04c0,.13.03.26.1.39.06.14.16.29.29.45l.49-.34c.14-.09.23-.19.28-.29s.07-.22.07-.35c0-.14-.06-.27-.17-.38-.12-.11-.27-.17-.45-.17s-.34.07-.45.2c-.1.13-.16.3-.16.49Z"/>
    <path class="cls-3" d="M149.75,8.73l.06.64c.14-.23.32-.41.54-.53.22-.13.46-.19.74-.19.47,0,.83.14,1.08.41.25.27.38.69.38,1.26v2.72h-.79v-2.71c0-.38-.08-.65-.22-.81-.15-.16-.38-.24-.69-.24-.23,0-.43.05-.6.16-.17.11-.31.26-.42.45v3.15h-.79v-4.31h.7Z"/>
    <path class="cls-3" d="M154.15,9.31c.15-.21.33-.37.55-.48s.46-.17.72-.17c.46,0,.82.14,1.07.41.26.28.38.7.38,1.27v2.7h-.79v-2.71c0-.36-.08-.62-.23-.79-.15-.17-.38-.25-.68-.25-.22,0-.42.05-.59.15-.18.1-.32.24-.44.42v3.19h-.79v-6.22h.79v2.48Z"/>
    <path class="cls-3" d="M160.32,13.04c-.03-.13-.05-.25-.06-.34s-.02-.2-.03-.3c-.15.21-.34.38-.57.52-.24.14-.49.21-.76.21-.45,0-.79-.12-1.03-.34-.24-.23-.35-.55-.35-.95s.17-.73.5-.97c.33-.23.79-.35,1.36-.35h.85v-.43c0-.25-.08-.45-.23-.6-.15-.15-.37-.22-.65-.22-.25,0-.46.06-.62.19-.16.13-.24.28-.24.46h-.75v-.02c-.02-.31.12-.6.44-.86.31-.26.72-.39,1.21-.39s.88.12,1.18.37.45.61.45,1.07v2.08c0,.15,0,.3.02.45s.04.29.09.42h-.81ZM160.54,7.84v.1h-.64l-.59-.59-.58.59h-.64v-.1l.98-.94h.48l.99.95ZM159.02,12.46c.28,0,.54-.07.77-.22.23-.15.38-.31.45-.5v-.7h-.88c-.32,0-.57.08-.76.24-.19.16-.29.35-.29.56,0,.19.06.34.18.45.12.11.3.17.53.17ZM159.56,14.38h-.87v-.8h.87v.8Z"/>
    <path class="cls-3" d="M162.54,8.73l.06.64c.14-.23.32-.41.54-.53.22-.13.46-.19.74-.19.47,0,.83.14,1.08.41.25.27.38.69.38,1.26v2.72h-.79v-2.71c0-.38-.08-.65-.22-.81-.15-.16-.38-.24-.69-.24-.23,0-.43.05-.6.16-.17.11-.31.26-.42.45v3.15h-.79v-4.31h.7Z"/>
    <path class="cls-3" d="M172.78,8.15v.02c.02.47-.09.83-.33,1.09-.24.25-.6.4-1.11.44v3.34h-.71l-.05-.64c-.14.23-.31.41-.52.53s-.46.19-.74.19c-.47,0-.84-.15-1.1-.45-.26-.3-.39-.77-.39-1.4v-2.54h.79v2.55c0,.46.07.78.2.95.13.17.35.26.63.26s.51-.06.69-.17c.18-.11.32-.27.41-.48v-3.11h.79v.45h.02c.27-.01.46-.1.57-.28.11-.17.17-.42.17-.76h.67Z"/>
    <path class="cls-3" d="M175.06,12.4c-.14.23-.31.41-.52.53s-.46.19-.74.19c-.47,0-.84-.15-1.1-.45-.26-.3-.39-.77-.39-1.4v-2.54h.79v2.55c0,.46.07.78.2.95.13.17.35.26.63.26s.51-.06.69-.17c.18-.11.32-.27.41-.48v-3.11h.79v4.31h-.71l-.05-.64Z"/>
    <path class="cls-3" d="M182.59,8.13h-.79v4.91h-.64l-.09-.53c-.14.2-.31.35-.52.46-.2.1-.44.16-.71.16-.53,0-.94-.19-1.24-.57s-.45-.88-.45-1.5v-.08c0-.69.15-1.25.44-1.68.3-.43.71-.64,1.25-.64.25,0,.48.05.67.14.2.09.36.23.5.41v-1.06h-.98v-.62h.98v-.69h.79v.69h.79v.62ZM178.94,11.05c0,.44.09.79.27,1.05.18.26.45.39.83.39.23,0,.43-.05.59-.16.16-.11.29-.25.39-.45v-2.01c-.1-.18-.23-.32-.39-.42-.16-.1-.35-.16-.58-.16-.38,0-.66.16-.83.47-.18.31-.27.71-.27,1.21v.08Z"/>
    <path class="cls-3" d="M185.42,13.04c-.03-.13-.05-.25-.06-.34s-.02-.2-.03-.3c-.15.21-.34.38-.57.52-.24.14-.49.21-.76.21-.45,0-.79-.12-1.03-.34-.24-.23-.35-.55-.35-.95s.17-.73.5-.97c.33-.23.79-.35,1.36-.35h.85v-.43c0-.25-.08-.45-.23-.6-.15-.15-.37-.22-.65-.22-.25,0-.46.06-.62.19-.16.13-.24.28-.24.46h-.75v-.02c-.02-.31.12-.6.44-.86.31-.26.72-.39,1.21-.39s.88.12,1.18.37.45.61.45,1.07v2.08c0,.15,0,.3.02.45s.04.29.09.42h-.81ZM185.8,6.97c0,.25-.08.46-.24.63s-.36.26-.6.26c-.19,0-.39-.06-.59-.19-.21-.12-.38-.19-.51-.19-.11,0-.21.04-.29.13s-.12.19-.12.31l-.43-.1c0-.25.08-.46.24-.64.16-.18.36-.27.6-.27.15,0,.33.06.56.19.22.12.4.19.54.19.11,0,.2-.04.28-.13.08-.09.12-.19.12-.32l.43.13ZM184.12,12.46c.28,0,.54-.07.77-.22.23-.15.38-.31.45-.5v-.7h-.88c-.32,0-.57.08-.76.24-.19.16-.29.35-.29.56,0,.19.06.34.18.45.12.11.3.17.53.17Z"/>
    <path class="cls-3" d="M187.78,7.62h-.79v-.8h.79v.8ZM187.78,13.04h-.79v-4.31h.79v4.31Z"/>
  </g>
</svg>