<?xml version="1.0" encoding="UTF-8"?>
<svg id="Layer_1" data-name="Layer 1" xmlns="http://www.w3.org/2000/svg" width="191" height="19" version="1.1" viewBox="0 0 191 19">
  <defs>
    <style>
      .cls-1 {
        fill: none;
      }

      .cls-1, .cls-2, .cls-3, .cls-4 {
        stroke-width: 0px;
      }

      .cls-2 {
        fill: #000b68;
      }

      .cls-3 {
        fill: #0b1b7d;
      }

      .cls-4 {
        fill: #e9efff;
      }
    </style>
  </defs>
  <rect class="cls-1" width="191" height="19"/>
  <path class="cls-4" d="M191,0H0v19h191V0Z"/>
  <g>
    <path class="cls-2" d="M26.39,12.16c-.33.36-.72.64-1.16.84-.6.26-1.26.39-1.91.37-.44.02-.87-.05-1.28-.21-.41-.15-.78-.39-1.1-.69-.3-.31-.54-.67-.7-1.07s-.23-.83-.21-1.26v-1.64c-.02-.43.05-.85.21-1.25.15-.4.38-.76.68-1.07.3-.3.66-.54,1.05-.69.39-.16.82-.23,1.24-.21.82-.07,1.64.19,2.27.71.52.5.83,1.19.86,1.91h-1.72c-.03-.35-.17-.67-.4-.93-.13-.12-.28-.2-.44-.26s-.34-.07-.51-.06c-.2,0-.41.03-.59.12-.18.09-.34.22-.46.39-.27.38-.41.84-.39,1.31v1.65c-.03.47.11.94.39,1.32.12.16.28.29.47.38.18.09.39.13.59.12.26,0,.53-.02.78-.08.17-.04.32-.11.45-.22v-1.21h-1.18v-1.22h3.08v2.96Z"/>
    <path class="cls-2" d="M29.31,6.04h-1.83v-1.23h1.83v1.23ZM29.31,13.25h-1.83v-5.86h1.83v5.86Z"/>
    <path class="cls-2" d="M33.81,13.24c-.05-.1-.1-.2-.14-.31,0-.12-.07-.24-.11-.36-.17.24-.38.43-.63.57-.27.15-.58.23-.89.22-.5.02-.98-.16-1.35-.49-.17-.16-.31-.36-.4-.58-.09-.22-.13-.46-.12-.7-.01-.26.04-.52.15-.75.11-.23.28-.44.49-.59.6-.36,1.29-.53,1.99-.48h.67v-.41c.01-.21-.05-.42-.18-.58-.07-.07-.16-.12-.25-.16-.09-.03-.19-.05-.29-.04-.17-.01-.34.04-.48.15-.11.13-.16.3-.15.47h-1.76c-.01-.26.04-.52.16-.76.12-.23.29-.44.51-.59.54-.38,1.2-.57,1.86-.54.63-.03,1.25.16,1.76.54.23.19.41.43.53.7.12.27.17.56.15.86v2.2c0,.29.02.59.07.88.06.27.14.54.24.79l-1.84-.04ZM32.6,12.06c.17,0,.34-.03.5-.11.14-.07.27-.17.37-.29v-.91h-.66c-.11,0-.23,0-.33.04-.11.04-.21.09-.29.17-.07.07-.12.16-.16.25-.03.09-.05.19-.05.29,0,.08.01.15.04.22.03.07.07.13.13.18.13.1.28.15.44.15Z"/>
    <path class="cls-2" d="M36.07,10.27c-.02-.77.24-1.53.75-2.11.56-.54,1.31-.84,2.08-.84s1.52.3,2.08.84c.51.59.77,1.34.75,2.11v.12c.02.77-.24,1.53-.75,2.11-.27.29-.6.51-.96.66-.37.14-.76.21-1.15.18-.39.02-.78-.04-1.15-.18-.37-.14-.69-.37-.96-.65-.51-.59-.77-1.34-.75-2.11l.06-.12ZM37.9,10.38c-.02.4.06.79.23,1.15.08.14.19.25.33.33.14.07.3.11.45.1.15,0,.31-.03.44-.1.13-.07.25-.19.32-.32.17-.36.24-.76.21-1.15v-.12c.02-.39-.06-.79-.23-1.14-.08-.13-.19-.24-.33-.32-.14-.08-.29-.12-.44-.12s-.31.04-.44.12c-.14.08-.25.19-.33.32-.17.36-.25.75-.23,1.14l.02.12Z"/>
    <path class="cls-2" d="M46.98,7.39l.06.82c.18-.28.43-.51.71-.69.29-.16.61-.24.94-.24.25-.01.51.03.74.13.23.1.44.24.61.43.36.52.53,1.15.48,1.78v3.63h-1.83v-3.64c.03-.25-.04-.51-.2-.71-.08-.07-.18-.13-.29-.17-.11-.04-.22-.05-.33-.04-.16,0-.31.03-.45.1-.13.06-.24.15-.34.25v4.23h-1.82v-5.88h1.71Z"/>
    <path class="cls-2" d="M53.29,8.12c.17-.25.39-.46.64-.61.26-.15.55-.22.85-.22.27-.01.54.04.79.15.25.11.47.28.64.48.39.57.57,1.26.52,1.95v3.38h-1.83v-3.38c.03-.32-.04-.65-.2-.93-.08-.09-.17-.16-.28-.2-.11-.04-.23-.06-.34-.05-.15.02-.3.06-.44.13-.12.05-.24.12-.33.22v4.23h-1.79V4.8h1.83l-.05,3.32Z"/>
    <path class="cls-2" d="M61.11,13.24c0-.1-.1-.19-.14-.31-.04-.12-.07-.24-.11-.36-.16.24-.38.43-.62.57-.27.15-.58.23-.89.22-.5.02-.99-.16-1.36-.49-.17-.16-.31-.36-.4-.58s-.13-.46-.12-.7c-.01-.26.04-.52.16-.75s.29-.44.5-.59c.59-.36,1.28-.53,1.98-.48h.67v-.41c.02-.21-.04-.41-.17-.58-.07-.07-.16-.12-.25-.16-.09-.03-.2-.05-.3-.04-.17-.01-.33.04-.47.15-.06.06-.1.14-.13.22-.03.08-.04.16-.03.25h-1.77c-.01-.26.04-.52.16-.76.12-.23.29-.44.51-.59.54-.38,1.2-.57,1.86-.54.63-.03,1.25.16,1.76.54.23.19.4.43.52.7.12.27.17.56.15.86v2.2c0,.29.02.59.07.88.05.27.13.54.23.79l-1.82-.04ZM59.9,12.06c.17,0,.34-.03.5-.11.14-.07.27-.16.37-.29v-.91h-.64c-.11,0-.23,0-.34.04-.11.04-.21.09-.3.17-.13.15-.2.34-.19.54,0,.08.01.15.04.22.03.07.07.13.13.18.12.1.28.15.43.15Z"/>
    <path class="cls-2" d="M65.26,7.39l.06.82c.18-.28.43-.51.71-.69.29-.16.61-.24.94-.24.25-.01.51.03.74.13.23.1.44.24.61.43.36.52.53,1.15.48,1.78v3.63h-1.79v-3.64c.03-.25-.04-.51-.2-.71-.08-.07-.18-.13-.29-.17-.11-.04-.22-.05-.33-.04-.16,0-.31.03-.45.1-.13.06-.24.15-.34.25v4.23h-1.82v-5.88h1.67Z"/>
    <path class="cls-2" d="M71.61,8.12c.17-.25.39-.46.64-.61.26-.15.55-.22.85-.22.27-.01.54.04.79.15.25.11.47.28.64.48.39.57.58,1.26.53,1.95v3.38h-1.83v-3.38c.03-.32-.04-.65-.2-.93-.08-.09-.17-.16-.28-.2-.11-.04-.23-.06-.34-.05-.15,0-.31.03-.45.07-.12.05-.24.12-.33.22v4.23h-1.83V4.75h1.82v3.37Z"/>
    <path class="cls-2" d="M80.45,10.55h-3.25v-1.41h3.25v1.41Z"/>
    <path class="cls-2" d="M85.11,5.37l1.77,5.55,1.79-5.51h2.41v7.84h-1.83v-1.96l.17-3.6-1.9,5.56h-1.23l-1.88-5.51.17,3.54v1.96h-1.86v-7.88h2.4Z"/>
    <path class="cls-2" d="M94.16,6.04h-1.84v-1.23h1.84v1.23ZM94.16,13.25h-1.84v-5.86h1.84v5.86Z"/>
    <path class="cls-2" d="M97.94,13.37c-.39.02-.78-.04-1.15-.18-.36-.14-.7-.36-.97-.64-.26-.27-.46-.59-.59-.94-.13-.35-.19-.72-.18-1.1v-.2c-.03-.79.21-1.56.7-2.18.25-.29.56-.51.91-.66.35-.15.73-.21,1.1-.19.34-.02.69.04,1.01.16s.61.31.85.56c.47.53.72,1.23.68,1.93v.98h-3.34c.03.28.16.54.37.74.23.2.52.31.82.3.28,0,.55-.02.82-.08.27-.07.54-.17.79-.29l.43,1.12c-.31.2-.64.36-.99.47-.41.12-.84.19-1.27.19ZM99.93,6.69h-1.62l-.76-.62-.76.62h-1.58l1.6-1.15h1.5l1.62,1.15ZM99.18,4.22c0,.24-.07.48-.21.68-.06.09-.14.16-.24.21-.1.05-.2.07-.31.07-.24-.02-.48-.08-.7-.19-.2-.1-.41-.17-.63-.19-.04,0-.08,0-.11.03-.03.02-.06.05-.07.09-.02.1-.02.21,0,.31l-.69-.19c0-.24.07-.48.2-.68.06-.09.14-.16.23-.21.09-.05.2-.08.31-.07.24.02.46.09.68.19.21.1.43.16.66.19.04,0,.08-.02.11-.05.03-.03.06-.06.07-.1.04-.11.05-.22.05-.34l.66.25ZM97.82,8.66c-.12,0-.23.01-.33.06-.1.05-.19.13-.26.22-.15.22-.23.48-.24.75h1.58v-.14c.02-.24-.05-.48-.19-.68-.07-.07-.16-.12-.25-.16-.1-.03-.2-.04-.3-.03v-.03Z"/>
    <path class="cls-2" d="M102.82,7.39l.06.82c.18-.28.42-.52.71-.69.29-.16.61-.25.94-.24.25-.01.5.03.73.13.23.1.44.24.61.43.37.51.54,1.15.49,1.78v3.63h-1.83v-3.64c.03-.25-.04-.51-.2-.71-.17-.15-.4-.22-.62-.21-.15,0-.31.03-.44.1-.13.06-.24.15-.34.25v4.23h-1.83v-5.88h1.72Z"/>
    <path class="cls-2" d="M115.54,10.45c.04.75-.17,1.5-.6,2.11-.19.26-.44.47-.73.61-.29.14-.61.21-.94.19-.26,0-.52-.06-.75-.17-.22-.11-.42-.27-.57-.47v2.77h-1.83V7.39h1.71l.06.64c.15-.22.35-.41.58-.55.24-.14.51-.21.78-.2.33-.01.65.06.95.21.29.15.55.36.73.63.43.65.64,1.43.6,2.21v.12ZM113.71,10.33c.02-.41-.06-.81-.21-1.18-.06-.14-.15-.26-.28-.34-.12-.08-.27-.12-.42-.12-.18,0-.36.03-.52.12-.14.07-.26.19-.34.33v2.44c.08.12.2.22.34.29.17.07.35.1.53.1.14,0,.28-.03.41-.1.12-.07.23-.18.29-.3.15-.35.22-.73.2-1.11v-.12Z"/>
    <path class="cls-2" d="M118.12,8.12c.16-.25.38-.46.64-.61.25-.15.54-.23.84-.22.27-.01.54.04.79.15.25.11.47.28.64.49.4.57.59,1.25.55,1.95v3.38h-1.83v-3.38c.03-.32-.04-.65-.2-.93-.08-.09-.17-.16-.28-.2-.11-.04-.22-.06-.34-.05-.18.01-.36.05-.53.13-.12.05-.23.12-.32.22v4.23h-1.8V4.8h1.83v3.32Z"/>
    <path class="cls-2" d="M123.79,5.22h1.88l-1.5,1.47h-1.53l1.15-1.47ZM124.55,13.25h-1.84v-5.86h1.84v5.86Z"/>
    <path class="cls-3" d="M129.27,12.72c.25,0,.49-.08.69-.24.09-.07.16-.16.22-.26.05-.1.08-.22.08-.33h.7c0,.19-.04.38-.13.55-.09.17-.21.32-.37.43-.33.28-.76.44-1.19.43-.27.02-.54-.03-.79-.14-.25-.11-.47-.27-.64-.47-.34-.44-.52-.98-.5-1.53v-.17c-.02-.55.16-1.09.5-1.52.17-.21.39-.37.64-.48.25-.11.52-.15.79-.14.45-.02.89.14,1.23.44.15.13.27.29.35.48.08.18.12.38.11.58h-.7c0-.12-.02-.25-.07-.36-.05-.11-.12-.22-.2-.31-.19-.18-.45-.28-.71-.27-.17-.01-.35.02-.5.1-.16.08-.29.2-.38.34-.18.32-.27.69-.26,1.06v.17c0,.37.09.73.26,1.06.07.17.19.32.35.43.16.1.34.16.53.16Z"/>
    <path class="cls-3" d="M132.61,9.54c.14-.2.33-.37.55-.49.22-.11.46-.17.71-.17.2,0,.39.02.57.09.18.07.35.18.48.32.28.36.42.81.38,1.27v2.69h-.77v-2.7c.02-.28-.06-.56-.23-.78-.09-.09-.19-.16-.31-.2-.12-.04-.24-.06-.37-.05-.21,0-.41.05-.59.15-.17.11-.32.25-.43.42v3.17h-.78v-6.19h.78v2.46Z"/>
    <path class="cls-3" d="M136.26,11.06c-.02-.57.16-1.12.52-1.56.17-.2.38-.36.63-.47.24-.11.5-.16.77-.15.27,0,.53.04.77.15.24.11.46.27.63.47.36.44.54,1,.52,1.56v.1c.03.56-.14,1.12-.49,1.56-.17.2-.38.36-.63.47s-.51.16-.77.14c-.27,0-.53-.04-.77-.15-.24-.11-.46-.27-.63-.47-.36-.44-.54-1-.52-1.56l-.03-.1ZM137.04,11.16c-.01.39.08.78.29,1.12.1.13.23.24.37.32.15.07.31.11.48.11s.33-.04.48-.11c.15-.07.28-.18.37-.32.2-.34.3-.73.29-1.12v-.1c.01-.39-.09-.78-.29-1.12-.09-.14-.22-.26-.37-.34-.15-.08-.32-.12-.49-.11-.17,0-.34.03-.48.11-.15.08-.27.19-.36.34-.2.34-.3.73-.29,1.12v.1Z"/>
    <path class="cls-3" d="M146.29,8.38h-.78v4.87h-.63l-.1-.53c-.13.19-.3.35-.51.45-.22.11-.46.16-.71.16-.24.01-.47-.04-.68-.13-.21-.1-.4-.25-.54-.44-.31-.43-.47-.96-.44-1.49v-.08c-.03-.59.13-1.17.44-1.67.13-.2.32-.37.53-.48.22-.11.46-.16.7-.15.23,0,.45.05.67.14.19.1.36.23.5.4v-1.06h-.98v-.61h.98v-.69h.77v.69h.78v.62ZM142.67,11.27c-.02.37.07.74.26,1.06.09.13.22.24.36.31.14.07.31.1.47.09.21,0,.41-.05.58-.16.16-.11.3-.27.39-.44v-2.02c-.1-.17-.23-.31-.39-.42-.17-.11-.38-.16-.58-.16-.17,0-.33.03-.48.12-.15.08-.27.2-.35.35-.19.37-.28.79-.26,1.21v.08Z"/>
    <path class="cls-3" d="M146.6,11.06c-.02-.57.17-1.12.52-1.56.17-.2.39-.36.63-.47s.5-.16.77-.15c.25,0,.5.05.74.14.22.09.42.22.59.39.1-.02.19-.06.28-.12.08-.06.15-.13.21-.21.11-.21.17-.44.16-.68h.7c.01.33-.08.66-.26.94-.19.25-.46.43-.77.5.1.18.17.37.21.57.05.21.08.43.07.64v.1c.02.57-.16,1.12-.51,1.56-.18.19-.4.35-.64.46s-.5.16-.77.16-.53-.05-.77-.16c-.24-.11-.46-.26-.64-.46-.35-.44-.54-1-.52-1.56v-.1ZM147.38,11.16c-.01.39.08.78.29,1.12.1.13.23.24.37.32.15.07.31.11.48.11s.33-.04.48-.11c.15-.07.28-.18.37-.32.2-.34.3-.73.29-1.12v-.1c.01-.39-.09-.78-.29-1.12-.1-.13-.23-.24-.37-.32-.15-.07-.31-.11-.48-.11s-.33.04-.48.11c-.15.07-.28.18-.37.32-.2.34-.3.73-.29,1.12v.1Z"/>
    <path class="cls-3" d="M152.13,8.97l.06.63c.13-.22.31-.4.53-.53.23-.13.48-.19.74-.19.2-.01.39.02.57.09.18.07.35.18.48.32.28.35.42.8.38,1.25v2.71h-.77v-2.69c.02-.14,0-.29-.03-.43-.04-.14-.11-.27-.2-.38-.09-.09-.2-.15-.31-.19-.12-.04-.24-.06-.36-.05-.21,0-.42.05-.6.16-.17.12-.31.27-.41.44v3.17h-.77v-4.23l.7-.1Z"/>
    <path class="cls-3" d="M159.09,7.93v1.06h.81v.57h-.81v2.6c0,.08,0,.15.02.22.02.07.06.14.11.2.04.04.09.08.15.1.06.02.12.03.18.03.05,0,.1,0,.15,0h.15l.11.53c-.08.06-.16.09-.25.12-.11.03-.22.05-.34.05-.14,0-.28-.02-.41-.07-.13-.05-.25-.13-.35-.23-.1-.12-.18-.27-.23-.42-.05-.15-.07-.32-.05-.48v-2.68h-.67v-.57h.68v-1.06l.77.02Z"/>
    <path class="cls-3" d="M165.76,8.39c.03.38-.09.76-.34,1.06-.29.27-.66.43-1.06.43v3.37h-.7v-.63c-.12.22-.3.41-.52.53-.22.13-.47.19-.72.19-.2,0-.4-.03-.58-.11-.18-.08-.35-.2-.48-.35-.3-.4-.43-.89-.39-1.39v-2.53h.77v2.53c-.03.33.04.65.2.94.08.09.17.16.28.21.11.05.23.06.35.05.24,0,.48-.05.69-.17.18-.12.32-.28.41-.48v-3.09h.77v.44c.11,0,.22-.02.31-.07.1-.05.18-.12.25-.2.13-.23.19-.5.17-.76h.58ZM162.93,8.39h-.62l-.99-1.06h.91l.71,1.06Z"/>
    <path class="cls-3" d="M168.65,9.87h.62c.11,0,.23,0,.33-.05.11-.04.2-.1.28-.18.14-.17.2-.38.19-.59.01-.2-.06-.4-.19-.56-.08-.07-.17-.13-.27-.17-.1-.04-.21-.05-.31-.05-.2,0-.39.06-.54.19-.07.06-.13.14-.17.22-.04.09-.06.18-.05.27h-1.12c0-.21.03-.43.12-.62.09-.2.23-.37.4-.5.38-.29.86-.45,1.34-.43.51-.03,1.02.12,1.43.42.18.15.32.34.42.55.09.21.14.45.12.68,0,.26-.09.5-.24.71-.16.23-.39.41-.64.53.29.09.55.28.73.53.16.24.25.52.24.81,0,.24-.04.48-.14.69-.1.22-.25.41-.44.56-.43.31-.95.47-1.48.45-.49.01-.98-.14-1.37-.43-.19-.13-.34-.32-.44-.52-.1-.21-.14-.44-.12-.67h1.12c0,.1.02.2.06.3.04.09.1.18.18.24.08.07.17.13.27.17.1.04.21.05.32.05.23.01.46-.06.63-.21.08-.08.14-.17.18-.28.04-.1.06-.22.05-.33.01-.12,0-.24-.04-.36-.04-.11-.1-.22-.18-.31-.19-.16-.43-.23-.68-.21h-.64l.02-.91Z"/>
    <path class="cls-3" d="M176.01,11.01c.04.62-.14,1.24-.52,1.73-.18.2-.4.35-.64.45-.24.1-.51.15-.77.14-.27.01-.54-.04-.78-.14-.25-.1-.47-.26-.65-.45-.38-.5-.56-1.11-.52-1.73v-1.28c-.04-.62.14-1.24.52-1.73.19-.19.41-.34.65-.44.24-.1.51-.15.77-.15.26,0,.53.05.77.15.24.1.47.25.65.44.39.49.58,1.11.53,1.73v1.28ZM174.85,9.61c.03-.35-.04-.69-.2-1-.06-.1-.15-.18-.25-.24-.1-.06-.22-.08-.34-.08-.12,0-.24.02-.34.08-.1.06-.19.14-.25.24-.16.31-.23.66-.2,1v1.5c-.03.35.04.7.2,1,.06.1.15.18.26.24.11.06.23.08.34.08.12,0,.23-.02.33-.08.1-.06.19-.14.25-.24.16-.31.23-.66.2-1v-1.5Z"/>
    <path class="cls-3" d="M180.66,11.01c.04.62-.14,1.24-.52,1.73-.18.2-.4.35-.65.46-.25.1-.51.15-.78.14-.27,0-.53-.04-.78-.14-.25-.1-.47-.26-.65-.45-.38-.49-.57-1.11-.53-1.73v-1.28c-.04-.62.15-1.24.53-1.73.19-.19.41-.34.65-.44.24-.1.51-.15.77-.15.26,0,.53.05.77.15.24.1.47.25.65.44.39.49.57,1.11.53,1.73v1.28ZM179.51,9.61c.03-.35-.04-.69-.2-1-.06-.1-.15-.18-.25-.24-.1-.06-.22-.08-.34-.08-.12,0-.24.02-.34.08-.1.06-.19.14-.25.24-.16.31-.24.66-.21,1v1.5c-.03.35.05.7.21,1,.06.1.15.18.25.24.1.06.22.08.34.08.12,0,.24-.02.34-.08.1-.06.19-.14.25-.24.16-.31.23-.66.2-1v-1.5Z"/>
    <path class="cls-3" d="M183.38,10.84h-.64v2.41h-1.15v-5.76h1.15v2.38h.51l1.52-2.35h1.43l-1.95,2.69,2.11,3.08h-1.44l-1.54-2.44Z"/>
    <path class="cls-2" d="M18.01,12.37c0-.46-.18-.9-.5-1.22-.32-.32-.76-.5-1.22-.5h-.13l-.88-1.93c-.02-.05-.05-.1-.1-.14-.02-.05-.06-.08-.1-.11-.04-.03-.09-.04-.14-.04h-.63v-.34c0-.1-.05-.2-.12-.27-.07-.07-.17-.11-.27-.11h-1.18c.14-.24.31-.46.52-.64.3,0,.59-.11.83-.3.23-.19.39-.46.45-.75h.38c-.04-.26-.18-.5-.39-.67-.1-.25-.27-.47-.49-.62-.22-.15-.49-.23-.76-.23-.27,0-.53.09-.76.24-.22.16-.39.37-.49.63-.09.25-.11.53-.04.79.07.26.21.5.42.68-1.07-.01-2.11.36-2.93,1.06-.06.03-.1.08-.14.14-.03.06-.05.12-.05.19,0,.1.04.2.12.27.07.07.17.11.27.12h.39c-.32.42-.61.86-.85,1.33h-.48v-.07l.48-2.79s0-.07,0-.1-.03-.06-.05-.09c-.02-.03-.05-.05-.08-.06-.03-.01-.07-.02-.1-.02h-2.6c-.08,0-.15.02-.21.07-.06.05-.1.11-.12.19l-.49,2.72s0,.06,0,.1h-.75s-.09.02-.12.06c-.03.03-.05.08-.06.12,0,.05.02.09.05.13s.08.05.13.05h9.21c-.33-.29-.72-.5-1.14-.63-.42-.13-.86-.17-1.29-.12,0,0,.26-.43.59-.94h.54s-.07.11-.07.18c0,.08.03.15.08.2.05.05.13.08.2.08h1.39s0,.09,0,.14l.56,1.22-.21.22h-1.87s-.06.01-.08.03c-.02.02-.03.05-.03.08s.01.06.03.08c.02.02.05.03.08.03h1.77s.04.02.05.04c.01.02.02.04.02.06,0,.01,0,.02,0,.04s0,.03,0,.04h-3.3s-.09.02-.12.05-.05.07-.05.12c0,.04.02.08.05.11.03.03.07.05.12.05h2.63s.06.01.08.03c.02.02.03.05.03.08s-.01.06-.03.08c-.02.02-.05.03-.08.03h-3.57s-.09.02-.12.05-.05.07-.05.12.02.09.05.12.07.05.12.05h3.27s.03.03.05.06c.01.02.02.05.02.07,0,.02,0,.04-.01.06,0,.02-.02.04-.04.05s-.03.03-.06.03c-.02,0-.04.01-.06,0h-3.89s-.09.02-.13.06c-.03.04-.05.08-.05.13v.05s.02.09.06.12c.03.03.08.05.12.06h3.47s.04.02.05.04c.01.02.02.04.02.06,0,.02,0,.03-.01.05,0,.01-.02.03-.04.03h-4.02c-.02.11-.05.22-.08.33-.03.09-.07.18-.12.26h5c-.03.15-.02.31.01.47.04.15.11.29.21.41.1.12.23.22.37.28s.3.1.46.09c.46,0,.9-.14,1.28-.39.38-.26.67-.62.84-1.04.09-.24.11-.51.05-.76h.84v-.05ZM16.11,13.19c-.06.14-.16.26-.29.35-.13.09-.28.14-.43.15-.06,0-.13,0-.18-.04-.06-.03-.11-.07-.14-.13-.03-.05-.05-.12-.06-.18,0-.06.01-.13.04-.18.06-.14.16-.26.29-.35.13-.09.28-.14.43-.15.06,0,.13,0,.18.04.06.03.11.07.14.13.03.05.05.12.06.18,0,.06-.01.13-.04.18Z"/>
    <path class="cls-2" d="M16.31,10.1h.08v-1.06h-.08c-.13,0-.26.05-.35.15-.09.09-.15.22-.15.35v.06c0,.13.05.26.15.35.09.09.22.15.35.15Z"/>
    <path class="cls-2" d="M10.72,11.33s.08-.02.11-.05.05-.07.05-.11-.02-.08-.05-.11c-.03-.03-.07-.05-.11-.05h-1.21s-.08.02-.11.05c-.03.03-.05.07-.05.11,0,.02,0,.04,0,.06s.02.04.03.05c.02.02.03.03.05.03s.04.01.06,0h1.21Z"/>
    <path class="cls-2" d="M12.04,10.75s.05-.01.07-.03c.02-.02.03-.04.03-.07,0-.03,0-.05-.03-.07-.02-.02-.04-.03-.07-.03h-.52s-.05.01-.07.03c-.02.02-.03.04-.03.07,0,.03,0,.05.03.07.02.02.04.03.07.03h.52Z"/>
    <path class="cls-2" d="M9.7,6.89h1.14s.06-.01.08-.03c.02-.02.03-.05.03-.08,0-.02,0-.03,0-.05,0-.02-.01-.03-.02-.04-.01-.01-.02-.02-.04-.03-.01,0-.03,0-.05,0h-1.14s-.07.01-.09.04c-.02.02-.04.06-.04.09,0,.02,0,.03,0,.05,0,.01.02.03.03.04.01.01.03.02.04.02.02,0,.03,0,.05,0Z"/>
    <path class="cls-2" d="M8.82,11.31s.07-.01.09-.04c.02-.02.04-.06.04-.09,0-.03-.02-.06-.04-.08-.02-.02-.05-.03-.09-.03h-1.06s-.03,0-.05,0c-.02,0-.03.01-.04.02s-.02.02-.03.04c0,.01,0,.03,0,.05,0,.03.01.07.04.09s.06.04.09.04h1.06Z"/>
    <path class="cls-2" d="M7.88,11.6c-.46,0-.9.14-1.28.39-.38.26-.67.62-.84,1.04-.08.16-.11.35-.1.53.01.18.07.36.17.51.1.15.24.28.4.36.16.08.34.12.52.12.46,0,.9-.14,1.28-.4.38-.26.67-.62.84-1.04.08-.16.11-.35.1-.53-.01-.18-.07-.36-.17-.51-.1-.15-.24-.28-.4-.36s-.34-.12-.52-.12ZM7.79,13.11c-.06.14-.16.27-.28.36-.13.09-.28.14-.43.14-.06,0-.12-.01-.18-.04-.06-.03-.1-.07-.14-.12-.03-.05-.05-.11-.06-.17s0-.12.04-.18c.06-.14.15-.27.28-.36.13-.09.28-.14.43-.14.06,0,.13,0,.18.04.06.03.11.07.14.12.04.05.06.11.06.18s0,.13-.04.18Z"/>
  </g>
</svg>