<svg xmlns:xlink="http://www.w3.org/1999/xlink" xmlns="http://www.w3.org/2000/svg" viewBox="0 0 44.22 25.85" height="25.85" width="44.22" ><defs><style>
                                    .cls-1,
                                    .cls-2,
                                    .cls-3 {
                                        fill: none;
                                        stroke: #fff;
                                        stroke-linecap: round;
                                        stroke-linejoin: round;
                                    }

                                    .cls-1 {
                                        stroke-width: 1.66px;
                                    }

                                    .cls-2 {
                                        stroke-width: 1.66px;
                                    }

                                    .cls-3 {
                                        stroke-width: 1.8px;
                                    }
                                </style></defs> <g id="Layer_2" data-name="Layer 2"><g id="Layer_1-2" data-name="Layer 1"><circle cx="7.66" cy="22.02" r="3" class="cls-1" stroke="#FFFFFF" fill="none" stroke-width="1.8px"></circle> <circle cx="24.79" cy="22.02" r="3" class="cls-2" stroke="#FFFFFF" fill="none" stroke-width="1.66px"></circle> <path d="M28.61,22h4.13a1.44,1.44,0,0,0,1.44-1.44v-6" class="cls-3" stroke="#FFFFFF" fill="none" stroke-width="1.8px"></path> <path d="M27.12.9H14.82a1.44,1.44,0,0,0-1.44,1.44V20.58A1.44,1.44,0,0,0,14.82,22h6.29" class="cls-3" stroke="#FFFFFF" fill="none" stroke-width="1.8px"></path> <path d="M10.27,5.92H6.75A2.65,2.65,0,0,0,4.54,7.11L1.33,12A2.64,2.64,0,0,0,.9,13.47v6.46A2.1,2.1,0,0,0,3,22h.75" class="cls-3" stroke="#FFFFFF" fill="none" stroke-width="1.8px"></path> <path d="M34.18,3.47V2.34A1.44,1.44,0,0,0,32.74.9H25.08" class="cls-3" stroke="#FFFFFF" fill="none" stroke-width="1.8px"></path> <line x1="43.32" y1="6.97" x2="32.57" y2="6.97" class="cls-3" stroke="#FFFFFF" fill="none" stroke-width="1.8px"></line> <line x1="40.5" y1="11.05" x2="32.57" y2="11.05" class="cls-3" stroke="#FFFFFF" fill="none" stroke-width="1.8px"></line> <line x1="42.09" y1="16.33" x2="38.07" y2="16.33" class="cls-3" stroke="#FFFFFF" fill="none" stroke-width="1.8px"></line></g></g></svg>