<svg xmlns:xlink="http://www.w3.org/1999/xlink" xmlns="http://www.w3.org/2000/svg" viewBox="0 0 30.83 30.94" width="24" height="24"><defs><style>
                                    .cls-1 {
                                        fill: none;
                                        stroke: #fff;
                                        stroke-linecap: round;
                                        stroke-linejoin: round;
                                        stroke-width: 1.8px;
                                    }
                                </style></defs> <g id="Layer_2" data-name="Layer 2"><g id="Layer_1-2" data-name="Layer 1"><path d="M6.78,20.27a31,31,0,0,0,10.29,8.06A15.91,15.91,0,0,0,22.82,30h.41a4.77,4.77,0,0,0,3.7-1.59,0,0,0,0,0,0,0,14.62,14.62,0,0,1,1.17-1.2c.28-.28.57-.56.85-.85A2.91,2.91,0,0,0,29,22L25.33,18.4a2.94,2.94,0,0,0-2.13-1,3.07,3.07,0,0,0-2.15,1l-2.16,2.17c-.2-.12-.4-.22-.6-.32a6.74,6.74,0,0,1-.66-.36,22.82,22.82,0,0,1-5.47-5A13.11,13.11,0,0,1,10.32,12c.56-.52,1.09-1.05,1.61-1.58l.55-.56a3.07,3.07,0,0,0,1-2.17,3.08,3.08,0,0,0-1-2.18l-1.8-1.8L10.07,3c-.4-.41-.82-.83-1.23-1.21A3,3,0,0,0,6.72.9a3.07,3.07,0,0,0-2.15.94L2.31,4.09a4.64,4.64,0,0,0-1.38,3,11.09,11.09,0,0,0,.84,4.83,28.11,28.11,0,0,0,5,8.37Z" class="cls-1" stroke="#FFFFFF" fill="none" stroke-width="1.8px"></path></g></g></svg>